<?xml version="1.0" standalone="no"?><!DOCTYPE svg PUBLIC "-//W3C//DTD SVG 1.1//EN" "http://www.w3.org/Graphics/SVG/1.1/DTD/svg11.dtd"><svg t="1516440302350" class="icon" style="" viewBox="0 0 1024 1024" version="1.1" xmlns="http://www.w3.org/2000/svg" p-id="8408" xmlns:xlink="http://www.w3.org/1999/xlink" width="64" height="64"><defs><style type="text/css"></style></defs><path d="M512 0C229.218 0 0 229.218 0 512s229.218 512 512 512 512-229.218 512-512S794.782 0 512 0zM512 944c-238.594 0-432-193.406-432-432S273.406 80 512 80s432 193.406 432 432S750.594 944 512 944z" p-id="8409" fill="#409EFF"></path><path d="M736 549.344l0-74.656-41.094 0c-1.5-7.406-4.218-14.312-6.562-21.376l36.282-20.938-37.344-64.672-36.188 20.89c-4.938-5.532-10.156-10.734-15.688-15.656l20.938-36.218-64.656-37.344-20.938 36.312c-7.094-2.36-13.968-5.078-21.406-6.594L549.344 288l-74.688 0 0 41.094c-7.376 1.516-14.282 4.234-21.312 6.562l-20.968-36.282-64.688 37.312 20.906 36.234c-5.532 4.922-10.718 10.094-15.656 15.64l-36.218-20.922-37.344 64.672 36.312 20.938c-2.376 7.094-5.094 14-6.594 21.438L288 474.686l0 74.656 41.094 0c1.5 7.406 4.218 14.312 6.562 21.344l-36.344 21 37.344 64.688 36.282-20.938c4.938 5.562 10.124 10.75 15.688 15.656l-20.938 36.282 64.656 37.344 21-36.376c7.032 2.344 13.938 5.094 21.312 6.562L474.656 736l74.688 0 0-41.094c7.376-1.468 14.312-4.218 21.406-6.594l20.938 36.376 64.688-37.344-20.938-36.282c5.562-4.938 10.718-10.124 15.688-15.688l36.25 20.938 37.312-64.688-36.344-21c2.344-7.032 5.062-13.876 6.562-21.282L736 549.342zM512 624c-61.812 0-112-50.124-112-112 0-61.812 50.188-112 112-112 61.876 0 112 50.188 112 112C624 573.876 573.876 624 512 624zM512 474.688c-20.624 0-37.344 16.688-37.344 37.312s16.718 37.344 37.344 37.344 37.344-16.718 37.344-37.344S532.624 474.688 512 474.688z" p-id="8410" fill="#409EFF"></path></svg>